<svg xmlns="http://www.w3.org/2000/svg" width="29.1" height="33.57" viewBox="0 0 29.1 33.57">
  <path id="Icon_material-filter-vintage" data-name="Icon material-filter-vintage" d="M28.05,18.6a9.09,9.09,0,0,0-1.29-.6,9.09,9.09,0,0,0,1.29-.6,9.018,9.018,0,0,0,4.5-7.785,9.011,9.011,0,0,0-9,0,9.5,9.5,0,0,0-1.17.81A8.925,8.925,0,0,0,18,1.215a8.925,8.925,0,0,0-4.38,9.21A8.186,8.186,0,0,0,12.45,9.6a9.011,9.011,0,0,0-9,0,8.955,8.955,0,0,0,4.5,7.785,9.09,9.09,0,0,0,1.29.6A8.877,8.877,0,0,0,3.45,26.37a9.011,9.011,0,0,0,9,0,9.5,9.5,0,0,0,1.17-.81A9.326,9.326,0,0,0,13.5,27,9,9,0,0,0,18,34.785a8.925,8.925,0,0,0,4.38-9.21,8.1,8.1,0,0,0,1.17.81,9.011,9.011,0,0,0,9,0,9.018,9.018,0,0,0-4.5-7.785ZM18,24a6,6,0,1,1,6-6A6,6,0,0,1,18,24Z" transform="translate(-3.45 -1.215)"/>
</svg>
