<svg width="15" height="15" viewBox="0 0 15 15" fill="none" xmlns="http://www.w3.org/2000/svg">
<path fill-rule="evenodd" clip-rule="evenodd" d="M3.63527 10.2439C1.69551 7.75337 1.87091 4.14931 4.16069 1.85957C6.64094 -0.619858 10.6609 -0.619858 13.1404 1.85957C15.6199 4.339 15.6199 8.35974 13.1404 10.8392C10.8506 13.1289 7.24652 13.3043 4.75595 11.3646C4.74484 11.3765 4.73372 11.3884 4.72182 11.4003L1.35502 14.7679C1.04469 15.0774 0.542283 15.0774 0.232747 14.7679C-0.0775824 14.4575 -0.0775824 13.9551 0.232747 13.6448L3.59955 10.278C3.61146 10.2661 3.62336 10.255 3.63527 10.2439ZM5.28374 2.98182C3.42335 4.8414 3.42335 7.85655 5.28374 9.71692C7.14334 11.5765 10.1585 11.5765 12.0181 9.71692C13.8777 7.85655 13.8777 4.8414 12.0181 2.98182C10.1585 1.12225 7.14334 1.12225 5.28374 2.98182Z" fill="#818181"/>
</svg>
