<svg xmlns="http://www.w3.org/2000/svg" viewBox="0 0 30 30"><defs><style>.cls-1{fill:#999;}</style></defs><title>ic_user</title><g id="Layer_2" data-name="Layer 2"><g id="Layer_1-2" data-name="Layer 1"><path class="cls-1" d="M.51,18.74a15.25,15.25,0,0,0,9,10.19,14.13,14.13,0,0,0,3.25.9A14.41,14.41,0,0,0,16.2,30a14.71,14.71,0,0,0,7.56-2.84,15.18,15.18,0,0,0,4.89-5.94,14.37,14.37,0,0,0,1.16-3.74A16.11,16.11,0,0,0,30,14.57a14.11,14.11,0,0,0-1.12-5.2,15.22,15.22,0,0,0-6.77-7.54A14.53,14.53,0,0,0,18,.3,13.75,13.75,0,0,0,15.66,0l-.13,0h-1l-.13,0a14.15,14.15,0,0,0-5,1.12A15.13,15.13,0,0,0,2.42,7,14.54,14.54,0,0,0,.33,12a13.7,13.7,0,0,0-.28,2.11c0,.12,0,.25,0,.37v1c0,.12,0,.24.05.37A13.87,13.87,0,0,0,.51,18.74ZM24.05,25a13.1,13.1,0,0,1-6,3.1,13.82,13.82,0,0,1-3.79.31,13.42,13.42,0,0,1-5.9-1.7,13,13,0,0,1-2.68-2c-.12-.11-.11-.09,0-.22a9.94,9.94,0,0,1,5.66-5.57,9.71,9.71,0,0,1,2.76-.63,10.3,10.3,0,0,1,4.76.66,9.77,9.77,0,0,1,5,4.42c.2.34.36.71.53,1.06a1.34,1.34,0,0,1,.07.18C24.32,24.71,24.19,24.84,24.05,25ZM12.76,16.14a5,5,0,0,1-2.95-3.59A5.48,5.48,0,0,1,10,9.27a5,5,0,0,1,3.64-3.21,5.4,5.4,0,0,1,3.48.24A5,5,0,0,1,20.25,10a5.43,5.43,0,0,1,.12,1.18,5.38,5.38,0,0,1-.78,2.91,5,5,0,0,1-3,2.27A5.52,5.52,0,0,1,12.76,16.14ZM1.67,13.94A13.26,13.26,0,0,1,4.18,7,13,13,0,0,1,9.61,2.71a13.16,13.16,0,0,1,3.43-1A13.74,13.74,0,0,1,16,1.64a13.25,13.25,0,0,1,7.85,3.2,13.07,13.07,0,0,1,3.59,5,13.41,13.41,0,0,1,.86,3.29,13.71,13.71,0,0,1,.07,3.07,13.24,13.24,0,0,1-2.17,6.26l-.47.66-.08.1a12.2,12.2,0,0,0-7-6.08l.11-.07a7.14,7.14,0,0,0,3-3.92,6.35,6.35,0,0,0-.41-4.89,7,7,0,0,0-4.35-3.71,6.41,6.41,0,0,0-5.15.56,7.14,7.14,0,0,0-3.4,4.09,6.46,6.46,0,0,0-.3,2.47A6.85,6.85,0,0,0,9.4,15.28a7.35,7.35,0,0,0,1.92,1.81l.09.06a0,0,0,0,1,0,0,12.11,12.11,0,0,0-7,6.07l-.09-.1a13.37,13.37,0,0,1-2.26-4.68,14.22,14.22,0,0,1-.38-2.26A13.23,13.23,0,0,1,1.67,13.94Z"/></g></g></svg>