<svg xmlns="http://www.w3.org/2000/svg" width="30.345" height="23.777" viewBox="0 0 30.345 23.777">
  <path id="Icon_metro-location" data-name="Icon metro-location" d="M23.527,1.928c-8.38,0-15.173,3.327-15.173,7.43,0,7.43,15.173,16.346,15.173,16.346S38.7,16.788,38.7,9.358c0-4.1-6.793-7.43-15.173-7.43Zm0,11.981c-5.133,0-9.293-2.038-9.293-4.551s4.161-4.551,9.293-4.551,9.293,2.038,9.293,4.551S28.66,13.909,23.527,13.909ZM17.648,9.358c0-1.59,2.632-2.879,5.879-2.879s5.879,1.289,5.879,2.879-2.632,2.879-5.879,2.879S17.648,10.948,17.648,9.358Z" transform="translate(-8.355 -1.928)" fill="#bbb"/>
</svg>
