<svg xmlns="http://www.w3.org/2000/svg" width="26.2" height="27" viewBox="0 0 26.2 27">
  <path id="Icon_material-phone" data-name="Icon material-phone" d="M9.769,16.185a22.4,22.4,0,0,0,9.592,9.885l3.2-3.3a1.417,1.417,0,0,1,1.485-.36,16.155,16.155,0,0,0,5.2.855,1.483,1.483,0,0,1,1.456,1.5V30a1.483,1.483,0,0,1-1.456,1.5C15.577,31.5,4.5,20.085,4.5,6A1.483,1.483,0,0,1,5.956,4.5H11.05A1.483,1.483,0,0,1,12.506,6a17.516,17.516,0,0,0,.83,5.355,1.538,1.538,0,0,1-.364,1.53l-3.2,3.3Z" transform="translate(-4.5 -4.5)" fill="#bbb"/>
</svg>
