<svg xmlns="http://www.w3.org/2000/svg" viewBox="0 0 25.67 30"><defs><style>.cls-1{fill:#999;}</style></defs><title>ic_pass</title><g id="Layer_2" data-name="Layer 2"><g id="Layer_1-2" data-name="Layer 1"><path class="cls-1" d="M25.64,13.65c0-.14-.05-.29-.08-.42a3.37,3.37,0,0,0-3.28-2.6h-.46v-1c0-.46,0-.94,0-1.41a8.73,8.73,0,0,0-2.1-5A8.85,8.85,0,0,0,14.36.14,9,9,0,0,0,4.06,7a9.12,9.12,0,0,0-.22,2v1.59h-.7A3.38,3.38,0,0,0,0,14v9.67a8.73,8.73,0,0,0,.55,3.27A4.58,4.58,0,0,0,4,29.78a6.6,6.6,0,0,0,.89.14l.43.06.08,0H20.27l.3,0,.67-.08a4.84,4.84,0,0,0,4.17-4,10.82,10.82,0,0,0,.17-1.12l.06-.51,0-.23V13.83Q25.66,13.76,25.64,13.65ZM6,9.66a12.1,12.1,0,0,1,.08-1.59,6.91,6.91,0,0,1,3-4.88,6.45,6.45,0,0,1,3.08-1.14,6.4,6.4,0,0,1,4.61,1.24,7,7,0,0,1,3,5.83c0,.3,0,.6,0,.89v.41l-.05.12-.09,0H6l0-.08a.43.43,0,0,1,0-.11C6,10.14,6,9.9,6,9.66ZM23.54,24a6.07,6.07,0,0,1-.24,1.67A2.94,2.94,0,0,1,20.87,28a7.49,7.49,0,0,1-1.44.13H6a5.13,5.13,0,0,1-1.81-.3,2.91,2.91,0,0,1-1.83-2.13,7.27,7.27,0,0,1-.22-1.87q0-4.68,0-9.38a1.7,1.7,0,0,1,1.77-1.73H21.77a1.73,1.73,0,0,1,1.68,1.16,1.91,1.91,0,0,1,.09.55C23.55,17.6,23.55,20.81,23.54,24Z"/><path class="cls-1" d="M11.51,20.18v3.26a1.16,1.16,0,0,0,1.32,1.14A1.24,1.24,0,0,0,14,23.29c0-1,0-2.05,0-3.08a.39.39,0,0,1,.16-.33A2.31,2.31,0,0,0,15,17.6a2.16,2.16,0,0,0-3.44-1.36,2.34,2.34,0,0,0-.92,2.13,2.13,2.13,0,0,0,.77,1.56A.36.36,0,0,1,11.51,20.18Z"/></g></g></svg>